<svg width="433" height="373" viewBox="0 0 433 373" fill="none" xmlns="http://www.w3.org/2000/svg">
<path fill-rule="evenodd" clip-rule="evenodd" d="M0 -1.11012e-05H432.669V372.496H0V-1.11012e-05Z" fill="#9E0A0E"/>
<path d="M41.8852 259.554C41.8852 259.342 41.6376 253.898 41.1394 243.273C40.6409 232.703 40.3933 223.03 40.3933 214.306C40.3933 182.485 43.3806 159.65 49.3909 145.855C54.2018 134.596 61.2088 128.994 70.3737 128.994C77.2139 128.994 83.269 132.008 88.4916 138.031C93.7557 144.057 96.37 151.405 96.37 160.075C96.37 167.899 94.2958 175.192 90.1089 181.958C85.922 188.724 80.7802 192.107 74.5992 192.107C67.4282 192.107 61.7492 188.299 57.5623 180.688V208.861C57.5623 220.017 58.8034 227.998 61.2926 232.912C64.444 239.099 70.0845 242.215 78.2076 242.215H102.837C110.468 242.215 115.527 240.209 118.015 236.192C120.501 232.121 121.749 225.143 121.749 215.151V80.9441C121.749 69.6857 121 60.91 119.466 54.514C117.433 45.8471 113.494 38.3931 107.564 32.2604H175.983C170.51 37.9718 166.985 44.3134 165.406 51.1854C163.83 58.0576 163.043 67.1486 163.043 78.3556V261.561C163.043 273.984 158.483 282.705 149.401 287.676C142.973 291.217 133.233 292.96 120.17 292.96C117.395 292.96 113.414 292.96 108.268 292.96C103.171 292.96 99.6888 292.96 97.8656 292.96H80.5322C65.8526 292.96 56.6037 291.902 52.7899 289.789C45.5351 285.718 41.8852 275.675 41.8852 259.554Z" fill="white"/>
<path fill-rule="evenodd" clip-rule="evenodd" d="M253.691 103.716C252.762 101.823 251.4 100.138 249.609 98.6619C245.897 95.5683 241.631 94.0255 236.88 94.0255H216.953C216.504 94.0255 215.575 94.3797 214.166 95.0963C212.717 95.8083 211.493 96.4029 210.454 96.8791C209.864 98.1463 209.455 99.8506 209.23 101.988C209.006 104.129 208.896 105.597 208.896 106.388C208.896 112.887 212.907 122.872 220.92 136.345C226.415 145.697 234.652 157.823 245.638 172.724C258.701 190.476 265.53 199.827 266.124 200.78C266.718 198.717 267.092 196.816 267.238 195.073C267.388 193.329 267.458 191.188 267.458 188.653C267.458 183.422 266.419 178.628 264.345 174.268C262.267 169.911 259.22 166.462 255.214 163.924H295.962V223.128C295.962 226.615 295.778 229.587 295.403 232.043C295.037 234.499 294.18 236.916 292.845 239.297L318.232 276.149H267.458C267.458 271.39 266.754 267.191 265.305 263.546C263.861 259.902 261.519 256.572 258.331 253.561C246.567 257.048 234.987 258.791 223.667 258.791C220.07 258.791 216.543 258.791 213.017 258.791C209.525 258.791 206.038 258.791 202.626 258.791C188.594 258.791 178.833 256.729 173.307 252.608C165.848 247.062 162.137 236.007 162.137 219.362C162.137 217.146 162.137 213.458 162.137 208.349C162.137 203.196 162.137 199.273 162.137 196.576C162.137 183.899 163.546 174.425 166.368 168.088C170.229 159.37 177.499 153.899 188.189 151.683C181.505 142.843 177.318 135.79 175.606 130.559C173.897 125.328 173.047 117.881 173.047 108.25V97.3122C173.047 81.6234 176.979 71.28 184.847 66.2064C190.491 62.5618 200.957 60.7393 216.248 60.7393H228.493C236.065 60.7393 242.67 60.9755 248.31 61.4517C253.954 61.9279 258.331 63.1166 261.448 65.0177V98.0678C261.448 100.024 261.397 101.905 261.291 103.716H253.691ZM197.096 211.478C197.096 215.599 197.875 218.413 199.434 219.916C201.032 221.424 203.885 222.176 208.081 222.176H237.845L202.217 171.06C200.583 172.803 199.323 175.062 198.43 177.834C197.544 180.608 197.096 183.422 197.096 186.276V211.478Z" fill="white"/>
<path d="M327.156 197.963C327.156 190.503 329.195 183.736 333.27 177.662C337.344 171.587 342.29 168.548 348.11 168.548C352.436 168.548 356.51 170.892 360.334 175.581C364.157 180.273 366.071 185.386 366.071 190.93C366.071 199.455 363.826 206.17 359.337 211.07C361.33 212.138 363.408 213.202 365.572 214.267C373.554 214.267 379.04 208.832 382.034 197.963C383.863 191.142 384.777 181.125 384.777 167.908V159.917C384.777 149.26 382.532 140.359 378.043 133.22C373.554 126.078 367.318 122.508 359.337 122.508H327.407C320.754 122.508 315.602 124.161 311.943 127.463C308.283 130.769 306.453 136.577 306.453 144.89V259.989C306.453 279.598 314.187 289.403 329.61 289.403H358.462C369.894 289.403 378.168 288.017 383.323 285.246C390.305 281.409 395.585 273.415 399.244 261.266V338.319C392.092 337.466 384.32 337.039 375.84 337.039C368.357 337.039 359.584 337.36 349.442 338C325.703 339.492 310.946 340.238 305.125 340.238C290.201 340.238 279.64 334.8 273.527 323.931C268.208 314.554 265.549 299.951 265.549 280.129V147.447C265.549 118.672 270.285 98.6374 279.766 87.3403C287.249 78.3878 299.388 73.9112 316.184 73.9112C321.506 73.9112 328.488 74.3391 337.135 75.191C356.758 77.1081 369.563 78.0695 375.547 78.0695C380.371 78.0695 384.069 77.9085 386.648 77.5869C389.227 77.2686 393.424 76.3619 399.244 74.8698V153.843C399.244 174.089 395.752 191.036 388.768 204.678C380.622 220.663 368.981 228.654 353.847 228.654C347.03 228.654 340.875 225.67 335.389 219.705C329.903 213.736 327.156 206.488 327.156 197.963Z" fill="white"/>
</svg>
